<svg width="360" height="266" viewBox="0 0 360 266" fill="none" xmlns="http://www.w3.org/2000/svg">
<g clip-path="url(#clip0)">
<g filter="url(#filter0_dd)">
<path d="M47 138.877C47 136.604 48.8423 134.762 51.1149 134.762H67.5744V196.485H51.1149C48.8423 196.485 47 194.643 47 192.37V138.877Z" fill="#5BD48A"/>
</g>
<path d="M53.5741 153.453C53.7219 153.453 53.8401 153.335 53.8401 153.188L53.8401 145.045L52.1833 145.045C52.0356 145.045 51.9173 145.163 51.9173 145.31L51.9173 153.188C51.9173 153.335 52.0356 153.453 52.1833 153.453L53.5741 153.453V153.453Z" fill="white"/>
<path d="M61.8175 145.207C61.6549 145.207 61.5367 145.339 61.5367 145.486L61.5367 153.453L63.1787 153.453C63.3413 153.453 63.4595 153.335 63.4595 153.188L63.4595 145.486C63.4595 145.339 63.3413 145.207 63.1787 145.207L61.8175 145.207Z" fill="white"/>
<path d="M61.5349 151.038L53.8402 145.045L53.8402 147.592L61.5349 153.453L61.5349 151.038Z" fill="white"/>
<path d="M58.4873 166.589L58.4873 169.474L52.1834 169.474C52.0357 169.474 51.9175 169.606 51.9175 169.738L51.9175 171.166C51.9175 171.313 52.0357 171.431 52.1834 171.431L58.3248 171.431C58.4134 171.431 58.4873 171.504 58.4873 171.593L58.4873 173.065C58.4873 173.212 58.5908 173.314 58.7533 173.314L59.952 173.314C60.0998 173.314 60.2032 173.212 60.2032 173.065L60.2032 171.593C60.2032 171.504 60.2919 171.431 60.3657 171.431L62.2165 171.431C62.3642 171.431 62.4824 171.313 62.4824 171.166L62.4824 169.738C62.4824 169.606 62.3642 169.474 62.2165 169.474L60.2032 169.474L60.2032 166.589L62.2165 166.589C62.3642 166.589 62.4824 166.456 62.4824 166.324L62.4824 164.896C62.4824 164.749 62.3642 164.631 62.2165 164.631L60.3657 164.631C60.2919 164.631 60.2032 164.558 60.2032 164.47L60.2032 162.998C60.2032 162.851 60.0998 162.748 59.952 162.748L58.7533 162.748C58.5908 162.748 58.4873 162.851 58.4873 162.998L58.4873 164.47C58.4873 164.558 58.4134 164.631 58.3248 164.631L52.1834 164.631C52.0357 164.631 51.9175 164.749 51.9175 164.896L51.9175 166.324C51.9175 166.456 52.0357 166.589 52.1834 166.589L58.4873 166.589Z" fill="white"/>
<path d="M63.1935 176.28L52.1834 176.28C52.0357 176.28 51.9174 176.163 51.9174 176.016L51.9174 174.588C51.9174 174.441 52.0357 174.323 52.1834 174.323L63.1935 174.323C63.3413 174.323 63.4595 174.441 63.4595 174.588L63.4595 176.016C63.4595 176.163 63.3413 176.28 63.1935 176.28Z" fill="white"/>
<path d="M55.957 185.625C58.5022 185.625 60.3972 184.021 60.3972 181.636C60.3972 179.206 58.4135 177.646 56.0456 177.646C53.5152 177.646 51.7088 179.443 51.7088 181.961C51.7088 183.227 52.1964 184.478 52.9371 185.201C53.0849 185.348 53.2178 185.348 53.3804 185.186L54.1063 184.464C54.2688 184.302 54.254 184.14 54.1358 183.993C53.8698 183.655 53.3656 182.962 53.3656 182.034C53.3656 180.827 54.1801 179.884 55.5414 179.737L55.5414 185.186C55.5414 185.463 55.6301 185.625 55.957 185.625ZM56.9488 183.24L56.9488 179.824C57.6008 179.794 58.7552 180.414 58.7552 181.665C58.7552 182.975 57.6008 183.416 57.128 183.416C57.0375 183.416 56.9488 183.358 56.9488 183.24Z" fill="white"/>
<path d="M53.3822 161.689L54.1081 160.967C54.2706 160.805 54.2559 160.644 54.1377 160.497C53.8717 160.159 53.3675 159.466 53.3675 158.538C53.3675 157.33 54.182 156.388 55.5432 156.241L55.5432 161.689C55.5432 161.969 55.6319 162.13 55.957 162.145C58.5022 162.263 60.3972 160.526 60.3972 158.141C60.3972 155.711 58.4135 154.151 56.0456 154.151C53.5152 154.151 51.7088 155.948 51.7088 158.466C51.7088 159.732 52.1964 160.984 52.9371 161.706C53.0849 161.851 53.2178 161.851 53.3822 161.689ZM56.9488 159.747L56.9488 156.331C57.6008 156.301 58.7552 156.919 58.7552 158.172C58.7552 159.482 57.6008 159.923 57.128 159.923C57.0375 159.923 56.9488 159.864 56.9488 159.747Z" fill="white"/>
<g filter="url(#filter1_dd)">
<path d="M67.5745 93.6135C67.5745 76.5691 81.3917 62.752 98.436 62.752H242.457C259.501 62.752 273.318 76.5691 273.318 93.6135V289.07H67.5745V93.6135Z" fill="#EAECED"/>
</g>
<g filter="url(#filter2_dd)">
<path d="M77.8616 95.6709C77.8616 83.1717 87.9942 73.0391 100.493 73.0391H240.399C252.898 73.0391 263.031 83.1717 263.031 95.6709V173.853C263.031 186.353 252.898 196.485 240.399 196.485H100.493C87.9942 196.485 77.8616 186.353 77.8616 173.853V95.6709Z" fill="#2C2E2F"/>
</g>
<path d="M164.022 186.197C158.137 185.69 152.944 183.544 149.561 180.221C147.634 178.328 146.465 176.275 145.937 173.854C145.696 172.753 145.697 170.925 145.939 169.815C146.673 166.449 148.885 163.505 152.37 161.259C160.316 156.137 172.488 156.162 180.359 161.318C181.405 162.003 182.08 162.546 183.025 163.465C184.219 164.623 185.058 165.774 185.943 167.467C185.976 167.529 186.139 167.608 186.304 167.642C186.862 167.756 187.606 168.183 188.206 168.734C188.671 169.161 189.032 169.626 189.919 170.945C190.814 172.275 194.864 178.423 195.11 178.825C195.206 178.981 195.017 179.233 194.803 179.233C194.652 179.233 194.544 179.134 194.32 178.788C194.162 178.543 193.129 176.967 192.025 175.286C188.117 169.335 187.904 169.059 186.816 168.524L186.243 168.243H184.563C182.884 168.243 182.882 168.243 182.841 168.417C182.618 169.368 182.577 169.602 182.626 169.646C182.657 169.674 183.61 170.208 184.745 170.832L186.808 171.967L186.679 172.233C186.608 172.38 186.527 172.499 186.498 172.499C186.469 172.499 184.733 171.554 182.64 170.399C180.547 169.244 178.712 168.266 178.562 168.226C177.967 168.064 177.052 168.713 177.052 169.296C177.052 169.888 177.231 170.06 180.909 173.021C183.203 174.868 184.516 175.978 184.716 176.24C185.081 176.717 185.45 177.42 185.79 178.287C186.388 179.811 187.36 180.661 188.955 181.054L189.48 181.183L189.436 181.466C189.411 181.621 189.378 181.764 189.361 181.783C189.293 181.859 188.236 181.527 187.623 181.238C186.667 180.786 186.009 180.142 185.363 179.024C185.359 179.016 184.984 179.142 184.53 179.305C183.724 179.594 183.687 179.618 182.926 180.348C179.683 183.459 175.032 185.447 169.415 186.123C168.505 186.232 164.992 186.281 164.022 186.197ZM169.612 185.239C172.189 184.905 174.187 184.402 176.279 183.56C178.474 182.676 180.544 181.407 181.993 180.055L182.563 179.523L181.127 178.848C179.591 178.127 179.44 178.008 179.244 177.363C179.12 176.956 179.26 176.524 179.652 176.105L179.957 175.78L179.291 175.282C178.764 174.889 178.599 174.717 178.498 174.456C178.333 174.033 178.393 173.577 178.659 173.208L178.862 172.929L176.756 172.564C175.598 172.364 174.519 172.162 174.357 172.115C174.042 172.023 173.721 171.671 173.637 171.324C173.593 171.139 174.625 166.186 174.855 165.479C174.958 165.163 175.399 164.781 175.732 164.72C176.08 164.656 182.285 165.728 182.594 165.906C183.083 166.187 183.238 166.638 183.083 167.333L183.018 167.623L183.362 167.623C183.55 167.623 183.998 167.6 184.355 167.573L185.005 167.523L184.683 166.935C183.707 165.153 181.944 163.361 179.768 161.937C178.753 161.273 176.585 160.224 175.281 159.764C173.425 159.111 171.179 158.622 169.021 158.401C167.838 158.28 164.738 158.281 163.589 158.404C160.835 158.698 158.333 159.31 156.147 160.227C151.085 162.348 147.682 165.863 146.81 169.868C146.583 170.915 146.565 172.747 146.773 173.699C147.234 175.804 148.24 177.625 149.877 179.321C153.212 182.775 158.306 184.897 164.416 185.377C165.234 185.441 168.78 185.347 169.612 185.239ZM168.497 181.47C168.181 181.38 167.862 181.012 167.795 180.66C167.751 180.431 167.805 180.272 168.139 179.637C169.488 177.07 170.075 174.708 170.075 171.842C170.075 169.071 169.556 166.915 168.265 164.332C167.988 163.777 167.762 163.262 167.762 163.188C167.762 162.913 167.996 162.514 168.249 162.358C168.597 162.144 169.179 162.184 169.458 162.441C169.565 162.54 169.843 162.989 170.076 163.439C170.999 165.221 171.632 167.176 171.944 169.21C172.137 170.47 172.176 172.856 172.021 174.009C171.737 176.135 171.166 178.033 170.251 179.892C169.699 181.015 169.352 181.478 169.062 181.478C169.003 181.478 168.909 181.492 168.851 181.509C168.793 181.526 168.634 181.509 168.497 181.47ZM164.74 179.538C164.257 179.4 163.908 178.817 164.048 178.38C164.082 178.274 164.309 177.787 164.553 177.298C165.587 175.226 166.017 173.004 165.806 170.823C165.633 169.031 165.306 167.9 164.483 166.247C163.931 165.137 163.906 164.965 164.227 164.518C164.532 164.094 165.294 164.025 165.694 164.386C165.972 164.636 166.835 166.407 167.168 167.411C168.27 170.73 168.102 174.294 166.689 177.556C165.965 179.227 165.457 179.743 164.74 179.538ZM160.866 177.579C160.567 177.446 160.31 177.136 160.24 176.823C160.198 176.633 160.271 176.422 160.625 175.717C161.927 173.126 161.941 170.631 160.668 168.101C160.11 166.989 160.097 166.768 160.57 166.33C160.803 166.114 160.902 166.076 161.23 166.076C161.779 166.076 162.064 166.347 162.555 167.338C163.31 168.863 163.619 170.186 163.617 171.88C163.614 173.622 163.325 174.818 162.518 176.426C162.056 177.346 161.828 177.589 161.365 177.652C161.224 177.671 161 177.638 160.866 177.579ZM157.251 175.754C157.014 175.657 156.744 175.341 156.664 175.066C156.575 174.758 156.648 174.515 157.003 173.941C157.46 173.202 157.566 172.806 157.566 171.841C157.566 170.877 157.46 170.481 157.003 169.742C156.848 169.492 156.693 169.192 156.658 169.076C156.51 168.589 156.923 167.993 157.477 167.891C157.946 167.804 158.269 168.01 158.701 168.673C159.951 170.591 159.951 173.153 158.7 175.055C158.259 175.726 157.767 175.964 157.251 175.754ZM184.184 178.733C184.602 178.587 184.964 178.447 184.987 178.424C185.011 178.401 184.93 178.138 184.808 177.84C184.557 177.228 184.598 177.244 183.708 177.411C182.747 177.592 182.189 177.431 181.137 176.67C180.85 176.462 180.554 176.292 180.48 176.292C180.405 176.292 180.241 176.4 180.115 176.532C179.846 176.816 179.805 177.261 180.025 177.523C180.215 177.752 182.857 178.987 183.171 178.995C183.31 178.998 183.765 178.88 184.184 178.733ZM183.768 176.746C184.16 176.669 184.203 176.642 184.135 176.519C184.06 176.381 180.407 173.4 180.09 173.218C179.828 173.068 179.616 173.103 179.399 173.331C178.765 174 178.839 174.14 180.483 175.379C182.465 176.873 182.677 176.962 183.768 176.746ZM178.863 172.233C178.863 172.214 178.449 171.863 177.942 171.454C176.691 170.441 176.422 170.063 176.422 169.314C176.422 168.688 176.847 168.084 177.53 167.737C177.869 167.564 178.474 167.51 178.816 167.621C179.058 167.699 180.149 168.28 181.662 169.134L181.981 169.314L182.244 168.09C182.512 166.836 182.517 166.507 182.268 166.431C182.193 166.407 180.734 166.147 179.028 165.852C175.997 165.327 175.666 165.296 175.525 165.521C175.45 165.64 174.297 170.893 174.297 171.116C174.297 171.228 174.355 171.367 174.425 171.424C174.496 171.482 175.479 171.692 176.61 171.891C178.795 172.276 178.863 172.286 178.863 172.233Z" fill="white"/>
<g filter="url(#filter3_dd)">
<circle cx="112.838" cy="235.577" r="18.5169" fill="#2C2E2F"/>
<circle cx="112.838" cy="235.577" r="18.5169" fill="url(#paint0_linear)"/>
<circle cx="112.838" cy="235.577" r="19.5457" stroke="#0C0C0D" stroke-width="2.05744"/>
</g>
<g filter="url(#filter4_dd)">
<circle cx="170.446" cy="235.577" r="18.5169" fill="#2C2E2F"/>
<circle cx="170.446" cy="235.577" r="18.5169" fill="url(#paint1_linear)"/>
<circle cx="170.446" cy="235.577" r="19.5457" stroke="#0C0C0D" stroke-width="2.05744"/>
</g>
<g filter="url(#filter5_dd)">
<circle cx="228.055" cy="235.577" r="18.5169" fill="#2C2E2F"/>
<circle cx="228.055" cy="235.577" r="18.5169" fill="url(#paint2_linear)"/>
<circle cx="228.055" cy="235.577" r="19.5457" stroke="#0C0C0D" stroke-width="2.05744"/>
</g>
<g filter="url(#filter6_dd)">
<circle cx="112.838" cy="287.013" r="18.5169" fill="#2C2E2F"/>
<circle cx="112.838" cy="287.013" r="18.5169" fill="url(#paint3_linear)"/>
<circle cx="112.838" cy="287.013" r="19.5457" stroke="#0C0C0D" stroke-width="2.05744"/>
</g>
<g filter="url(#filter7_dd)">
<circle cx="170.446" cy="287.013" r="18.5169" fill="#2C2E2F"/>
<circle cx="170.446" cy="287.013" r="18.5169" fill="url(#paint4_linear)"/>
<circle cx="170.446" cy="287.013" r="19.5457" stroke="#0C0C0D" stroke-width="2.05744"/>
</g>
<g filter="url(#filter8_dd)">
<circle cx="228.055" cy="287.013" r="18.5169" fill="#2C2E2F"/>
<circle cx="228.055" cy="287.013" r="18.5169" fill="url(#paint5_linear)"/>
<circle cx="228.055" cy="287.013" r="19.5457" stroke="#0C0C0D" stroke-width="2.05744"/>
</g>
<g filter="url(#filter9_dd)">
<path d="M257.887 8.90895C260.728 3.98866 267.02 2.30287 271.94 5.14359L467.937 118.303C472.858 121.143 474.543 127.435 471.703 132.355L399.692 257.081C396.852 262.001 390.56 263.687 385.64 260.846L189.642 147.687C184.722 144.846 183.036 138.555 185.877 133.634L257.887 8.90895Z" fill="#5B06B0"/>
</g>
<path opacity="0.3" d="M247.6 26.7271L461.415 150.173L440.841 185.809L227.026 62.3629L247.6 26.7271Z" fill="black"/>
<g opacity="0.15" filter="url(#filter10_dd)">
<path d="M213.982 126.104C216.823 121.184 223.114 119.498 228.035 122.338L281.489 153.2C286.409 156.041 288.095 162.332 285.254 167.253V167.253C282.413 172.173 276.122 173.859 271.201 171.018L217.747 140.156C212.827 137.316 211.141 131.024 213.982 126.104V126.104Z" fill="black"/>
</g>
</g>
<defs>
<filter id="filter0_dd" x="28.4831" y="118.303" width="57.6082" height="98.757" filterUnits="userSpaceOnUse" color-interpolation-filters="sRGB">
<feFlood flood-opacity="0" result="BackgroundImageFix"/>
<feColorMatrix in="SourceAlpha" type="matrix" values="0 0 0 0 0 0 0 0 0 0 0 0 0 0 0 0 0 0 127 0"/>
<feOffset dy="2.05744"/>
<feGaussianBlur stdDeviation="9.25847"/>
<feColorMatrix type="matrix" values="0 0 0 0 0 0 0 0 0 0 0 0 0 0 0 0 0 0 0.1 0"/>
<feBlend mode="normal" in2="BackgroundImageFix" result="effect1_dropShadow"/>
<feColorMatrix in="SourceAlpha" type="matrix" values="0 0 0 0 0 0 0 0 0 0 0 0 0 0 0 0 0 0 127 0"/>
<feOffset/>
<feGaussianBlur stdDeviation="4.11487"/>
<feColorMatrix type="matrix" values="0 0 0 0 0 0 0 0 0 0 0 0 0 0 0 0 0 0 0.04 0"/>
<feBlend mode="normal" in2="effect1_dropShadow" result="effect2_dropShadow"/>
<feBlend mode="normal" in="SourceGraphic" in2="effect2_dropShadow" result="shape"/>
</filter>
<filter id="filter1_dd" x="49.0575" y="46.2925" width="242.778" height="263.352" filterUnits="userSpaceOnUse" color-interpolation-filters="sRGB">
<feFlood flood-opacity="0" result="BackgroundImageFix"/>
<feColorMatrix in="SourceAlpha" type="matrix" values="0 0 0 0 0 0 0 0 0 0 0 0 0 0 0 0 0 0 127 0"/>
<feOffset dy="2.05744"/>
<feGaussianBlur stdDeviation="9.25847"/>
<feColorMatrix type="matrix" values="0 0 0 0 0 0 0 0 0 0 0 0 0 0 0 0 0 0 0.1 0"/>
<feBlend mode="normal" in2="BackgroundImageFix" result="effect1_dropShadow"/>
<feColorMatrix in="SourceAlpha" type="matrix" values="0 0 0 0 0 0 0 0 0 0 0 0 0 0 0 0 0 0 127 0"/>
<feOffset/>
<feGaussianBlur stdDeviation="4.11487"/>
<feColorMatrix type="matrix" values="0 0 0 0 0 0 0 0 0 0 0 0 0 0 0 0 0 0 0.04 0"/>
<feBlend mode="normal" in2="effect1_dropShadow" result="effect2_dropShadow"/>
<feBlend mode="normal" in="SourceGraphic" in2="effect2_dropShadow" result="shape"/>
</filter>
<filter id="filter2_dd" x="59.3446" y="56.5796" width="222.203" height="160.48" filterUnits="userSpaceOnUse" color-interpolation-filters="sRGB">
<feFlood flood-opacity="0" result="BackgroundImageFix"/>
<feColorMatrix in="SourceAlpha" type="matrix" values="0 0 0 0 0 0 0 0 0 0 0 0 0 0 0 0 0 0 127 0"/>
<feOffset dy="2.05744"/>
<feGaussianBlur stdDeviation="9.25847"/>
<feColorMatrix type="matrix" values="0 0 0 0 0 0 0 0 0 0 0 0 0 0 0 0 0 0 0.1 0"/>
<feBlend mode="normal" in2="BackgroundImageFix" result="effect1_dropShadow"/>
<feColorMatrix in="SourceAlpha" type="matrix" values="0 0 0 0 0 0 0 0 0 0 0 0 0 0 0 0 0 0 127 0"/>
<feOffset/>
<feGaussianBlur stdDeviation="4.11487"/>
<feColorMatrix type="matrix" values="0 0 0 0 0 0 0 0 0 0 0 0 0 0 0 0 0 0 0.04 0"/>
<feBlend mode="normal" in2="effect1_dropShadow" result="effect2_dropShadow"/>
<feBlend mode="normal" in="SourceGraphic" in2="effect2_dropShadow" result="shape"/>
</filter>
<filter id="filter3_dd" x="73.7467" y="198.543" width="78.1826" height="78.1826" filterUnits="userSpaceOnUse" color-interpolation-filters="sRGB">
<feFlood flood-opacity="0" result="BackgroundImageFix"/>
<feColorMatrix in="SourceAlpha" type="matrix" values="0 0 0 0 0 0 0 0 0 0 0 0 0 0 0 0 0 0 127 0"/>
<feOffset dy="2.05744"/>
<feGaussianBlur stdDeviation="9.25847"/>
<feColorMatrix type="matrix" values="0 0 0 0 0 0 0 0 0 0 0 0 0 0 0 0 0 0 0.1 0"/>
<feBlend mode="normal" in2="BackgroundImageFix" result="effect1_dropShadow"/>
<feColorMatrix in="SourceAlpha" type="matrix" values="0 0 0 0 0 0 0 0 0 0 0 0 0 0 0 0 0 0 127 0"/>
<feOffset/>
<feGaussianBlur stdDeviation="4.11487"/>
<feColorMatrix type="matrix" values="0 0 0 0 0 0 0 0 0 0 0 0 0 0 0 0 0 0 0.04 0"/>
<feBlend mode="normal" in2="effect1_dropShadow" result="effect2_dropShadow"/>
<feBlend mode="normal" in="SourceGraphic" in2="effect2_dropShadow" result="shape"/>
</filter>
<filter id="filter4_dd" x="131.355" y="198.543" width="78.1826" height="78.1826" filterUnits="userSpaceOnUse" color-interpolation-filters="sRGB">
<feFlood flood-opacity="0" result="BackgroundImageFix"/>
<feColorMatrix in="SourceAlpha" type="matrix" values="0 0 0 0 0 0 0 0 0 0 0 0 0 0 0 0 0 0 127 0"/>
<feOffset dy="2.05744"/>
<feGaussianBlur stdDeviation="9.25847"/>
<feColorMatrix type="matrix" values="0 0 0 0 0 0 0 0 0 0 0 0 0 0 0 0 0 0 0.1 0"/>
<feBlend mode="normal" in2="BackgroundImageFix" result="effect1_dropShadow"/>
<feColorMatrix in="SourceAlpha" type="matrix" values="0 0 0 0 0 0 0 0 0 0 0 0 0 0 0 0 0 0 127 0"/>
<feOffset/>
<feGaussianBlur stdDeviation="4.11487"/>
<feColorMatrix type="matrix" values="0 0 0 0 0 0 0 0 0 0 0 0 0 0 0 0 0 0 0.04 0"/>
<feBlend mode="normal" in2="effect1_dropShadow" result="effect2_dropShadow"/>
<feBlend mode="normal" in="SourceGraphic" in2="effect2_dropShadow" result="shape"/>
</filter>
<filter id="filter5_dd" x="188.963" y="198.543" width="78.1826" height="78.1826" filterUnits="userSpaceOnUse" color-interpolation-filters="sRGB">
<feFlood flood-opacity="0" result="BackgroundImageFix"/>
<feColorMatrix in="SourceAlpha" type="matrix" values="0 0 0 0 0 0 0 0 0 0 0 0 0 0 0 0 0 0 127 0"/>
<feOffset dy="2.05744"/>
<feGaussianBlur stdDeviation="9.25847"/>
<feColorMatrix type="matrix" values="0 0 0 0 0 0 0 0 0 0 0 0 0 0 0 0 0 0 0.1 0"/>
<feBlend mode="normal" in2="BackgroundImageFix" result="effect1_dropShadow"/>
<feColorMatrix in="SourceAlpha" type="matrix" values="0 0 0 0 0 0 0 0 0 0 0 0 0 0 0 0 0 0 127 0"/>
<feOffset/>
<feGaussianBlur stdDeviation="4.11487"/>
<feColorMatrix type="matrix" values="0 0 0 0 0 0 0 0 0 0 0 0 0 0 0 0 0 0 0.04 0"/>
<feBlend mode="normal" in2="effect1_dropShadow" result="effect2_dropShadow"/>
<feBlend mode="normal" in="SourceGraphic" in2="effect2_dropShadow" result="shape"/>
</filter>
<filter id="filter6_dd" x="73.7467" y="249.979" width="78.1826" height="78.1826" filterUnits="userSpaceOnUse" color-interpolation-filters="sRGB">
<feFlood flood-opacity="0" result="BackgroundImageFix"/>
<feColorMatrix in="SourceAlpha" type="matrix" values="0 0 0 0 0 0 0 0 0 0 0 0 0 0 0 0 0 0 127 0"/>
<feOffset dy="2.05744"/>
<feGaussianBlur stdDeviation="9.25847"/>
<feColorMatrix type="matrix" values="0 0 0 0 0 0 0 0 0 0 0 0 0 0 0 0 0 0 0.1 0"/>
<feBlend mode="normal" in2="BackgroundImageFix" result="effect1_dropShadow"/>
<feColorMatrix in="SourceAlpha" type="matrix" values="0 0 0 0 0 0 0 0 0 0 0 0 0 0 0 0 0 0 127 0"/>
<feOffset/>
<feGaussianBlur stdDeviation="4.11487"/>
<feColorMatrix type="matrix" values="0 0 0 0 0 0 0 0 0 0 0 0 0 0 0 0 0 0 0.04 0"/>
<feBlend mode="normal" in2="effect1_dropShadow" result="effect2_dropShadow"/>
<feBlend mode="normal" in="SourceGraphic" in2="effect2_dropShadow" result="shape"/>
</filter>
<filter id="filter7_dd" x="131.355" y="249.979" width="78.1826" height="78.1826" filterUnits="userSpaceOnUse" color-interpolation-filters="sRGB">
<feFlood flood-opacity="0" result="BackgroundImageFix"/>
<feColorMatrix in="SourceAlpha" type="matrix" values="0 0 0 0 0 0 0 0 0 0 0 0 0 0 0 0 0 0 127 0"/>
<feOffset dy="2.05744"/>
<feGaussianBlur stdDeviation="9.25847"/>
<feColorMatrix type="matrix" values="0 0 0 0 0 0 0 0 0 0 0 0 0 0 0 0 0 0 0.1 0"/>
<feBlend mode="normal" in2="BackgroundImageFix" result="effect1_dropShadow"/>
<feColorMatrix in="SourceAlpha" type="matrix" values="0 0 0 0 0 0 0 0 0 0 0 0 0 0 0 0 0 0 127 0"/>
<feOffset/>
<feGaussianBlur stdDeviation="4.11487"/>
<feColorMatrix type="matrix" values="0 0 0 0 0 0 0 0 0 0 0 0 0 0 0 0 0 0 0.04 0"/>
<feBlend mode="normal" in2="effect1_dropShadow" result="effect2_dropShadow"/>
<feBlend mode="normal" in="SourceGraphic" in2="effect2_dropShadow" result="shape"/>
</filter>
<filter id="filter8_dd" x="188.963" y="249.979" width="78.1826" height="78.1826" filterUnits="userSpaceOnUse" color-interpolation-filters="sRGB">
<feFlood flood-opacity="0" result="BackgroundImageFix"/>
<feColorMatrix in="SourceAlpha" type="matrix" values="0 0 0 0 0 0 0 0 0 0 0 0 0 0 0 0 0 0 127 0"/>
<feOffset dy="2.05744"/>
<feGaussianBlur stdDeviation="9.25847"/>
<feColorMatrix type="matrix" values="0 0 0 0 0 0 0 0 0 0 0 0 0 0 0 0 0 0 0.1 0"/>
<feBlend mode="normal" in2="BackgroundImageFix" result="effect1_dropShadow"/>
<feColorMatrix in="SourceAlpha" type="matrix" values="0 0 0 0 0 0 0 0 0 0 0 0 0 0 0 0 0 0 127 0"/>
<feOffset/>
<feGaussianBlur stdDeviation="4.11487"/>
<feColorMatrix type="matrix" values="0 0 0 0 0 0 0 0 0 0 0 0 0 0 0 0 0 0 0.04 0"/>
<feBlend mode="normal" in2="effect1_dropShadow" result="effect2_dropShadow"/>
<feBlend mode="normal" in="SourceGraphic" in2="effect2_dropShadow" result="shape"/>
</filter>
<filter id="filter9_dd" x="162.216" y="-16.4595" width="333.147" height="303.024" filterUnits="userSpaceOnUse" color-interpolation-filters="sRGB">
<feFlood flood-opacity="0" result="BackgroundImageFix"/>
<feColorMatrix in="SourceAlpha" type="matrix" values="0 0 0 0 0 0 0 0 0 0 0 0 0 0 0 0 0 0 127 0"/>
<feOffset dy="2.05744"/>
<feGaussianBlur stdDeviation="9.25847"/>
<feColorMatrix type="matrix" values="0 0 0 0 0 0 0 0 0 0 0 0 0 0 0 0 0 0 0.1 0"/>
<feBlend mode="normal" in2="BackgroundImageFix" result="effect1_dropShadow"/>
<feColorMatrix in="SourceAlpha" type="matrix" values="0 0 0 0 0 0 0 0 0 0 0 0 0 0 0 0 0 0 127 0"/>
<feOffset/>
<feGaussianBlur stdDeviation="4.11487"/>
<feColorMatrix type="matrix" values="0 0 0 0 0 0 0 0 0 0 0 0 0 0 0 0 0 0 0.04 0"/>
<feBlend mode="normal" in2="effect1_dropShadow" result="effect2_dropShadow"/>
<feBlend mode="normal" in="SourceGraphic" in2="effect2_dropShadow" result="shape"/>
</filter>
<filter id="filter10_dd" x="190.322" y="100.735" width="118.593" height="96.0006" filterUnits="userSpaceOnUse" color-interpolation-filters="sRGB">
<feFlood flood-opacity="0" result="BackgroundImageFix"/>
<feColorMatrix in="SourceAlpha" type="matrix" values="0 0 0 0 0 0 0 0 0 0 0 0 0 0 0 0 0 0 127 0"/>
<feOffset dy="2.05744"/>
<feGaussianBlur stdDeviation="9.25847"/>
<feColorMatrix type="matrix" values="0 0 0 0 0 0 0 0 0 0 0 0 0 0 0 0 0 0 0.1 0"/>
<feBlend mode="normal" in2="BackgroundImageFix" result="effect1_dropShadow"/>
<feColorMatrix in="SourceAlpha" type="matrix" values="0 0 0 0 0 0 0 0 0 0 0 0 0 0 0 0 0 0 127 0"/>
<feOffset/>
<feGaussianBlur stdDeviation="4.11487"/>
<feColorMatrix type="matrix" values="0 0 0 0 0 0 0 0 0 0 0 0 0 0 0 0 0 0 0.04 0"/>
<feBlend mode="normal" in2="effect1_dropShadow" result="effect2_dropShadow"/>
<feBlend mode="normal" in="SourceGraphic" in2="effect2_dropShadow" result="shape"/>
</filter>
<linearGradient id="paint0_linear" x1="112.838" y1="217.06" x2="112.838" y2="254.094" gradientUnits="userSpaceOnUse">
<stop/>
<stop offset="1" stop-opacity="0"/>
</linearGradient>
<linearGradient id="paint1_linear" x1="170.446" y1="217.06" x2="170.446" y2="254.094" gradientUnits="userSpaceOnUse">
<stop/>
<stop offset="1" stop-opacity="0"/>
</linearGradient>
<linearGradient id="paint2_linear" x1="228.055" y1="217.06" x2="228.055" y2="254.094" gradientUnits="userSpaceOnUse">
<stop/>
<stop offset="1" stop-opacity="0"/>
</linearGradient>
<linearGradient id="paint3_linear" x1="112.838" y1="268.496" x2="112.838" y2="305.529" gradientUnits="userSpaceOnUse">
<stop/>
<stop offset="1" stop-opacity="0"/>
</linearGradient>
<linearGradient id="paint4_linear" x1="170.446" y1="268.496" x2="170.446" y2="305.529" gradientUnits="userSpaceOnUse">
<stop/>
<stop offset="1" stop-opacity="0"/>
</linearGradient>
<linearGradient id="paint5_linear" x1="228.055" y1="268.496" x2="228.055" y2="305.529" gradientUnits="userSpaceOnUse">
<stop/>
<stop offset="1" stop-opacity="0"/>
</linearGradient>
<clipPath id="clip0">
<rect width="360" height="266" fill="white"/>
</clipPath>
</defs>
</svg>
